<svg width="70" height="70" viewBox="0 0 70 70" fill="none" xmlns="http://www.w3.org/2000/svg">
<path d="M64.5003 0H17.8336C17.1893 0 16.667 0.522375 16.667 1.16667V12.8333C16.6708 16.0533 19.2803 18.6629 22.5003 18.6667H27.167V22.1667H26.0003C26.0015 21.5495 25.5218 21.0382 24.906 21L6.23931 19.8333C5.59618 19.7934 5.04245 20.2824 5.00249 20.9255C5.00103 20.9503 5.00031 20.9751 5.00031 21V25.6667C5.00031 26.311 5.52268 26.8333 6.16697 26.8333H6.23931L24.906 25.6667C25.5218 25.6285 26.0015 25.1172 26.0003 24.5H27.167V26.8333C27.167 27.4776 27.6893 28 28.3336 28H30.667V31.5C30.667 32.1443 31.1893 32.6667 31.8336 32.6667H33.0003V33.8333C33.0003 34.4776 33.5227 35 34.167 35C34.8113 35 35.3336 34.4776 35.3336 33.8333V32.6667H36.5003C37.1446 32.6667 37.667 32.1443 37.667 31.5V28H40.0003C40.6446 28 41.167 27.4776 41.167 26.8333V18.6667H47.0003V51.3333H35.3336C38.5536 51.3295 41.1632 48.72 41.167 45.5V38.5C41.167 37.8557 40.6446 37.3333 40.0003 37.3333H28.3336C27.6893 37.3333 27.167 37.8557 27.167 38.5V39.6667H26.0003C25.356 39.6667 24.8336 40.189 24.8336 40.8333C24.8336 41.4776 25.356 42 26.0003 42H27.167V45.5C27.1708 48.72 29.7803 51.3295 33.0003 51.3333H23.667C20.447 51.3371 17.8374 53.9467 17.8336 57.1667V68.8333C17.8336 69.4776 18.356 70 19.0003 70H64.5003C65.1446 70 65.667 69.4776 65.667 68.8333V1.16667C65.667 0.522375 65.1446 0 64.5003 0ZM23.667 23.4045L7.33364 24.4253V22.2413L23.667 23.2622V23.4045ZM29.5003 45.5V39.6667H38.8336V45.5C38.8336 47.433 37.2667 49 35.3336 49H33.0003C31.0673 49 29.5003 47.433 29.5003 45.5ZM47.0003 67.6667H20.167V57.1667C20.167 55.2336 21.734 53.6667 23.667 53.6667H47.0003V67.6667ZM35.3336 30.3333H33.0003V28H35.3336V30.3333ZM38.8336 25.6667H29.5003V18.6667H38.8336V25.6667ZM63.3336 67.6667H49.3336V17.5C49.3336 16.8557 48.8113 16.3333 48.167 16.3333H22.5003C20.5673 16.3333 19.0003 14.7664 19.0003 12.8333V2.33333H63.3336V67.6667Z" fill="white"/>
<path d="M55.167 15.1667C58.3886 15.1667 61.0003 12.5549 61.0003 9.33333C61.0003 6.11173 58.3886 3.5 55.167 3.5C51.9454 3.5 49.3336 6.11173 49.3336 9.33333C49.3374 12.5533 51.947 15.1629 55.167 15.1667ZM55.167 8.16667H51.8816C52.3743 6.77323 53.6891 5.83946 55.167 5.83333C57.1 5.82531 58.6734 7.38588 58.6814 9.31875C58.6894 11.2518 57.1289 12.8252 55.196 12.8332C53.7075 12.8393 52.3779 11.9034 51.8816 10.4999H55.167C55.8113 10.4999 56.3336 9.97748 56.3336 9.33319C56.3336 8.6889 55.8113 8.16667 55.167 8.16667Z" fill="white"/>
<path d="M52.8336 25.6667C52.1894 25.6667 51.667 26.189 51.667 26.8333V29.1667C51.667 29.8109 52.1894 30.3333 52.8336 30.3333C53.4779 30.3333 54.0003 29.8109 54.0003 29.1667V26.8333C54.0003 26.189 53.4779 25.6667 52.8336 25.6667Z" fill="white"/>
<path d="M52.8336 32.6667C52.1894 32.6667 51.667 33.189 51.667 33.8333V36.1667C51.667 36.8109 52.1894 37.3333 52.8336 37.3333C53.4779 37.3333 54.0003 36.8109 54.0003 36.1667V33.8333C54.0003 33.189 53.4779 32.6667 52.8336 32.6667Z" fill="white"/>
<path d="M52.8336 39.6667C52.1894 39.6667 51.667 40.189 51.667 40.8333V43.1667C51.667 43.8109 52.1894 44.3333 52.8336 44.3333C53.4779 44.3333 54.0003 43.8109 54.0003 43.1667V40.8333C54.0003 40.189 53.4779 39.6667 52.8336 39.6667Z" fill="white"/>
</svg>
