<svg width="51" height="50" viewBox="0 0 51 50" fill="none" xmlns="http://www.w3.org/2000/svg">
<g clip-path="url(#clip0_9701_89)">
<path d="M26 50C39.8071 50 51 38.8071 51 25C51 11.1929 39.8071 0 26 0C12.1929 0 0.999969 11.1929 0.999969 25C0.999969 38.8071 12.1929 50 26 50Z" fill="#5B6460"/>
<path d="M29.9575 25.4797H27.1892V35.9999H22.9949V25.4797H21V21.7824H22.9949V19.3899C22.9949 17.679 23.7783 14.9999 27.2265 14.9999L30.3334 15.0134V18.6021H28.0791C27.7094 18.6021 27.1894 18.7938 27.1894 19.6099V21.7859H30.324L29.9575 25.4797Z" fill="#E9ECE0"/>
</g>
<defs>
<clipPath id="clip0_9701_89">
<rect width="50" height="50" fill="white" transform="translate(0.758057)"/>
</clipPath>
</defs>
</svg>
