<svg width="70" height="70" viewBox="0 0 70 70" fill="none" xmlns="http://www.w3.org/2000/svg">
<path d="M66.9818 36.7881L63.8931 27.2846C62.3367 22.4955 59.5519 18.1657 55.8395 14.7633C52.1274 11.3606 47.5718 8.9626 42.6653 7.82825L35.8827 6.26009C35.8812 6.25982 17.0624 2.16551 17.0624 2.16551C16.5073 2.04438 15.961 2.39656 15.8402 2.95068C15.7196 3.50508 16.0711 4.05222 16.6254 4.17281L35.4197 8.26178C35.4198 8.26178 35.4592 8.27094 35.4592 8.27094C39.7471 9.21567 42.9181 12.7708 43.3537 17.1265C43.8864 22.4508 45.04 28.3707 46.783 34.722C49.1021 43.1724 48.989 50.2363 48.4859 54.6737C48.0903 58.1632 47.3987 60.6199 47.0433 61.7195H33.3276C32.7602 61.7195 32.3004 62.1793 32.3004 62.7467C32.3004 63.3141 32.7602 63.7738 33.3276 63.7738H47.1903L49.3644 67.4193C49.4547 67.5706 49.4054 67.7037 49.368 67.7694C49.3306 67.8352 49.2416 67.9455 49.0654 67.9455H5.40697C5.23074 67.9455 5.14174 67.8352 5.10428 67.7694C5.06695 67.7038 5.01774 67.5707 5.10797 67.4194L7.28207 63.7738H29.2188C29.7862 63.7738 30.246 63.3141 30.246 62.7467C30.246 62.1793 29.7862 61.7195 29.2188 61.7195H7.45884C5.8025 56.239 5.171 51.3613 5.47984 46.4321C5.76736 41.8426 6.83117 37.776 7.95718 33.4707C9.3595 28.1089 10.8097 22.5647 10.9549 15.4027C11.0354 11.4391 8.62095 6.27349 6.58125 2.63801C6.44248 2.29211 6.6265 2.0467 6.9981 2.07842L12.612 3.29986C13.1672 3.42099 13.7136 3.06867 13.8342 2.51469C13.9547 1.96029 13.6032 1.41315 13.049 1.29256L7.43492 0.0705721C5.45893 -0.437063 3.72616 1.90137 4.78955 3.64275C6.35703 6.43687 8.97587 11.6747 8.90109 15.3606C8.76068 22.2797 7.34181 27.7044 5.96971 32.9505C3.72288 41.5408 1.60019 49.6607 5.58211 62.6134L3.34362 66.3671C2.89518 67.1192 2.88548 68.0226 3.31792 68.784C3.75049 69.5454 4.53129 70 5.40697 70H49.0655C49.9411 70 50.722 69.5455 51.1545 68.784C51.587 68.0228 51.5773 67.1191 51.1289 66.367L48.9049 62.6377C49.2605 61.5959 50.0628 58.9351 50.5171 54.9942C51.0514 50.3592 51.1811 42.9853 48.7644 34.1781C47.217 28.5396 46.145 23.2576 45.5677 18.4479C49.9621 19.9807 53.4734 23.3905 55.1168 27.8016C55.572 29.062 57.5238 28.3223 57.0421 27.0844C55.0679 21.7856 50.7099 17.7658 45.3036 16.21C44.9135 13.7629 43.8013 11.5566 42.1745 9.82324L42.2028 9.82981C46.7646 10.8845 51.0001 13.1142 54.4516 16.2776C57.9032 19.441 60.4923 23.4668 61.9395 27.9196L65.0282 37.423C65.2222 38.0198 65.1219 38.6533 64.753 39.1611C64.3842 39.6689 63.8128 39.96 63.1853 39.96C62.3801 39.96 61.6503 39.453 61.3694 38.6986L58.3088 30.4834C58.1106 29.9518 57.5186 29.6815 56.9876 29.8794C56.4559 30.0775 56.1854 30.6691 56.3835 31.2005L59.4441 39.4155C60.0231 40.9699 61.5266 42.0141 63.1853 42.0141C64.4781 42.0141 65.6554 41.4142 66.4153 40.3683C67.1746 39.3228 67.3813 38.0177 66.9818 36.7881Z" fill="white"/>
<path d="M32.5225 50.8917C35.006 50.8917 37.0264 48.8713 37.0264 46.3878V23.4679C37.0264 20.9843 35.006 18.9638 32.5225 18.9638C30.039 18.9638 28.0186 20.9843 28.0186 23.4679V46.3878C28.0184 48.8713 30.039 50.8917 32.5225 50.8917ZM32.5225 21.0146C33.8752 21.0146 34.9756 22.1152 34.9756 23.4679V46.3878C34.9756 47.7405 33.8751 48.8409 32.5225 48.8409C31.1698 48.8409 30.0694 47.7403 30.0694 46.3878V45.3031H31.7591C32.3255 45.3031 32.7845 44.8441 32.7845 44.2777C32.7845 43.7112 32.3255 43.2523 31.7591 43.2523H30.0694V39.5219H31.7591C32.3255 39.5219 32.7845 39.063 32.7845 38.4965C32.7845 37.9301 32.3255 37.4711 31.7591 37.4711H30.0694V33.7408H31.7591C32.3255 33.7408 32.7845 33.2818 32.7845 32.7154C32.7845 32.149 32.3255 31.69 31.7591 31.69H30.0694V27.9596H31.7591C32.3255 27.9596 32.7845 27.5007 32.7845 26.9342C32.7845 26.3678 32.3255 25.9089 31.7591 25.9089H30.0694V23.4679C30.0692 22.1152 31.1698 21.0146 32.5225 21.0146Z" fill="white"/>
</svg>
