<svg width="70" height="70" viewBox="0 0 70 70" fill="none" xmlns="http://www.w3.org/2000/svg">
<g clip-path="url(#clip0_9701_224)">
<path d="M68.8336 15.1667H43.167C42.5227 15.1667 42.0003 15.689 42.0003 16.3333V44.3333H36.167V43.1667H37.3336C37.9779 43.1667 38.5003 42.6443 38.5003 42C38.5003 41.3557 37.9779 40.8333 37.3336 40.8333H25.667C25.0227 40.8333 24.5003 41.3557 24.5003 42C24.5003 42.6443 25.0227 43.1667 25.667 43.1667H26.8336V44.3333H15.167V43.1667H16.3336C16.9779 43.1667 17.5003 42.6443 17.5003 42C17.5003 41.3557 16.9779 40.8333 16.3336 40.8333H4.66697C4.02268 40.8333 3.50031 41.3557 3.50031 42C3.50031 42.6443 4.02268 43.1667 4.66697 43.1667H5.83364V44.3333H1.16697C0.52268 44.3333 0.000305176 44.8557 0.000305176 45.5V68.8333C0.000305176 69.4776 0.52268 70 1.16697 70H68.8336C69.4779 70 70.0003 69.4776 70.0003 68.8333V16.3333C70.0003 15.689 69.4779 15.1667 68.8336 15.1667ZM29.167 43.1667H33.8336V44.3333H29.167V43.1667ZM8.16697 43.1667H12.8336V44.3333H8.16697V43.1667ZM18.667 67.6667H2.33364V53.6667H18.667V67.6667ZM18.667 51.3333H2.33364V46.6667H18.667V51.3333ZM42.0003 67.6667H21.0003V46.6667H42.0003V67.6667ZM67.667 67.6667H44.3336V36.1667H67.667V67.6667ZM67.667 33.8333H44.3336V17.5H67.667V33.8333Z" fill="white"/>
<path d="M24.5003 65.3333H38.5003C39.1446 65.3333 39.667 64.811 39.667 64.1667V50.1667C39.667 49.5224 39.1446 49 38.5003 49H24.5003C23.856 49 23.3336 49.5224 23.3336 50.1667V64.1667C23.3336 64.811 23.856 65.3333 24.5003 65.3333ZM25.667 51.3333H37.3336V63H25.667V51.3333Z" fill="white"/>
<path d="M46.667 32.6667C47.3113 32.6667 47.8336 32.1443 47.8336 31.5V26.8333C47.8336 26.189 47.3113 25.6667 46.667 25.6667C46.0227 25.6667 45.5003 26.189 45.5003 26.8333V31.5C45.5003 32.1443 46.0227 32.6667 46.667 32.6667Z" fill="white"/>
<path d="M46.667 44.3333C47.3113 44.3333 47.8336 43.811 47.8336 43.1667V38.5C47.8336 37.8557 47.3113 37.3333 46.667 37.3333C46.0227 37.3333 45.5003 37.8557 45.5003 38.5V43.1667C45.5003 43.811 46.0227 44.3333 46.667 44.3333Z" fill="white"/>
<path d="M2.75079 20.7287C2.96108 20.9043 3.22635 21.0003 3.50037 21H38.5004C39.1447 21.0009 39.6678 20.4794 39.6688 19.8351C39.6692 19.5612 39.5731 19.2958 39.3975 19.0855L27.7309 5.0855C27.5088 4.81965 27.1801 4.66623 26.8337 4.66667H25.667V1.16667C25.667 0.522375 25.1447 0 24.5004 0H17.5004C16.8561 0 16.3337 0.522375 16.3337 1.16667V4.66667H15.167C14.8207 4.66623 14.492 4.81965 14.2699 5.0855L2.6032 19.0855C2.1902 19.58 2.25627 20.3158 2.75079 20.7287ZM18.667 2.33333H23.3337V4.66667H18.667V2.33333ZM15.7142 7H26.2865L36.0095 18.6667H5.9912L15.7142 7Z" fill="white"/>
</g>
<defs>
<clipPath id="clip0_9701_224">
<rect width="70" height="70" fill="white" transform="translate(0.000305176)"/>
</clipPath>
</defs>
</svg>
