<svg width="70" height="70" viewBox="0 0 70 70" fill="none" xmlns="http://www.w3.org/2000/svg">
<g clip-path="url(#clip0_9701_199)">
<path d="M35.0004 0C20.2047 0 8.16699 12.6654 8.16699 28.2334C8.16699 43.4898 33.1138 68.5966 34.1755 69.6594C34.403 69.8857 34.7018 70.0001 35.0004 70.0001C35.2991 70.0001 35.5977 69.8858 35.8252 69.6583C36.8868 68.5967 61.8337 43.49 61.8337 28.2335C61.8337 12.6654 49.7961 0 35.0004 0ZM35.0004 67.1627C30.6382 62.6384 10.5004 41.0491 10.5004 28.2334C10.5004 13.9521 21.4916 2.33338 35.0004 2.33338C48.5091 2.33338 59.5004 13.9521 59.5004 28.2334C59.5004 41.0434 39.3614 62.6371 35.0004 67.1627Z" fill="white"/>
<path d="M35.0004 5.83337C23.4213 5.83337 14.0004 15.2543 14.0004 26.8334C14.0004 38.4125 23.4213 47.8334 35.0004 47.8334C46.5795 47.8334 56.0004 38.4125 56.0004 26.8334C56.0004 15.2543 46.5795 5.83337 35.0004 5.83337ZM35.0004 45.5C24.7068 45.5 16.3338 37.1257 16.3338 26.8334C16.3338 16.5411 24.7068 8.16662 35.0004 8.16662C45.294 8.16662 53.667 16.5409 53.667 26.8332C53.667 37.1256 45.294 45.5 35.0004 45.5Z" fill="white"/>
<path d="M35.0005 57.1666C34.3565 57.1666 33.8339 57.6892 33.8339 58.3332V68.8332C33.8339 69.4771 34.3565 69.9998 35.0005 69.9998C35.6444 69.9998 36.1671 69.4771 36.1671 68.8332V58.3332C36.1671 57.6892 35.6444 57.1666 35.0005 57.1666Z" fill="white"/>
<path d="M37.3338 18.6667H32.6672C32.0232 18.6667 31.5005 19.1894 31.5005 19.8333V24.5001C31.5005 25.144 32.0232 25.6667 32.6672 25.6667H37.3338C39.2634 25.6667 40.8338 24.0963 40.8338 22.1667C40.8338 20.237 39.2634 18.6667 37.3338 18.6667ZM37.3338 23.3334H33.8338V21.0001H37.3338C37.9777 21.0001 38.5004 21.5238 38.5004 22.1667C38.5004 22.8095 37.9777 23.3334 37.3338 23.3334Z" fill="white"/>
<path d="M37.3336 14H28.0002C27.3563 14 26.8336 14.5227 26.8336 15.1666V38.5C26.8336 39.1439 27.3563 39.6666 28.0002 39.6666H32.6669C33.3108 39.6666 33.8335 39.1439 33.8335 38.5V30.3334H37.3335C41.8369 30.3334 45.5001 26.67 45.5001 22.1668C45.5001 17.6635 41.8369 14 37.3336 14ZM37.3336 28H32.667C32.0231 28 31.5004 28.5227 31.5004 29.1666V37.3332H29.167V16.3332H37.3336C40.5501 16.3332 43.167 18.95 43.167 22.1666C43.1669 25.3832 40.5501 28 37.3336 28Z" fill="white"/>
<path d="M68.8339 67.6666H64.1672C63.5233 67.6666 63.0006 68.1892 63.0006 68.8332C63.0006 69.4771 63.5233 69.9998 64.1672 69.9998H68.8339C69.4778 69.9998 70.0005 69.4771 70.0005 68.8332C70.0005 68.1892 69.4778 67.6666 68.8339 67.6666Z" fill="white"/>
<path d="M28.0003 67.6666H1.16693C0.522981 67.6666 0.000305176 68.1892 0.000305176 68.8332C0.000305176 69.4771 0.522981 69.9999 1.16693 69.9999H28.0003C28.6443 69.9999 29.1669 69.4772 29.1669 68.8333C29.1669 68.1894 28.6443 67.6666 28.0003 67.6666Z" fill="white"/>
<path d="M56.0003 67.6666H42.0003C41.3564 67.6666 40.8337 68.1892 40.8337 68.8332C40.8337 69.4771 41.3564 69.9999 42.0003 69.9999H56.0003C56.6442 69.9999 57.1669 69.4772 57.1669 68.8333C57.1669 68.1894 56.6442 67.6666 56.0003 67.6666Z" fill="white"/>
</g>
<defs>
<clipPath id="clip0_9701_199">
<rect width="70" height="70" fill="white" transform="translate(0.000305176)"/>
</clipPath>
</defs>
</svg>
