<svg width="411" height="40" viewBox="0 0 411 40" fill="none" xmlns="http://www.w3.org/2000/svg">
<g clip-path="url(#clip0_9701_21)">
<rect opacity="0.79705" x="72.5294" y="8" width="866" height="32" rx="2" fill="#1F2726"/>
<rect x="82.0294" y="18.5" width="225" height="11" stroke="#666666"/>
<g clip-path="url(#clip1_9701_21)">
<rect x="319.529" y="18" width="3" height="12" fill="#00ACF2"/>
<rect x="324.529" y="18" width="3" height="12" fill="#00ACF2"/>
<rect x="329.529" y="18" width="3" height="12" fill="#00ACF2"/>
<rect x="334.529" y="18" width="3" height="12" fill="#00ACF2"/>
<rect x="339.529" y="18" width="3" height="12" fill="#00ACF2"/>
</g>
<path d="M352.733 31L355.178 19.4844H357.561L356.623 23.875H361.123L362.061 19.4844H364.451L362.006 31H359.615L360.701 25.8594H356.201L355.115 31H352.733ZM368.662 21.4844L367.068 29H369.287C370.423 29 371.334 28.4401 372.022 27.3203C372.397 26.7057 372.673 25.974 372.85 25.125C373.1 23.9531 373.108 23.0547 372.873 22.4297C372.639 21.7995 371.975 21.4844 370.881 21.4844H368.662ZM373.443 19.7344C374.193 20 374.743 20.487 375.092 21.1953C375.373 21.7682 375.514 22.388 375.514 23.0547C375.519 23.7214 375.459 24.3568 375.334 24.9609C375.006 26.4922 374.423 27.7891 373.584 28.8516C372.449 30.2839 371.011 31 369.272 31H364.311L366.756 19.4844H371.717C372.425 19.4948 373.001 19.5781 373.443 19.7344Z" fill="#00ACF2"/>
<g clip-path="url(#clip2_9701_21)">
<path fill-rule="evenodd" clip-rule="evenodd" d="M400.34 27.3453C400.34 26.9223 400.016 26.582 399.614 26.582C399.215 26.582 398.887 26.9223 398.887 27.3453V28.9292L395.957 25.9977C395.674 25.7122 395.216 25.7122 394.93 25.9977C394.647 26.2801 394.647 26.7391 394.93 27.0221L397.848 29.9396H396.271C395.843 29.9396 395.498 30.2652 395.498 30.6652C395.498 31.0669 395.843 31.3901 396.271 31.3901H399.564C399.994 31.3901 400.34 31.0669 400.34 30.6652C400.34 30.653 400.337 30.6457 400.335 30.6341C400.337 30.6219 400.34 30.6079 400.34 30.5933V27.3453Z" fill="white"/>
<path fill-rule="evenodd" clip-rule="evenodd" d="M390.911 25.9977L387.982 28.9292V27.3453C387.982 26.9223 387.657 26.582 387.257 26.582C386.855 26.582 386.529 26.9223 386.529 27.3453V30.5933C386.529 30.6079 386.534 30.6219 386.534 30.6365C386.534 30.6457 386.532 30.6554 386.529 30.6652C386.532 31.0669 386.876 31.3925 387.304 31.3925H390.598C391.026 31.3925 391.373 31.0669 391.373 30.6652C391.373 30.2652 391.026 29.9396 390.598 29.9396H389.024L391.939 27.0245C392.222 26.7415 392.222 26.2801 391.939 25.9977C391.656 25.7122 391.197 25.7122 390.911 25.9977V25.9977Z" fill="white"/>
<path fill-rule="evenodd" clip-rule="evenodd" d="M395.957 23.4198L398.887 20.4908V22.074C398.887 22.4952 399.215 22.8349 399.614 22.8373C400.016 22.8373 400.34 22.4952 400.34 22.074V18.8236C400.34 18.812 400.337 18.7956 400.335 18.7834C400.337 18.7737 400.34 18.7645 400.34 18.7524C400.34 18.3506 399.992 18.0274 399.564 18.0274H396.271C395.843 18.0274 395.498 18.3506 395.498 18.7524C395.498 19.1517 395.843 19.4804 396.271 19.4804H397.848L394.93 22.3954C394.647 22.6778 394.647 23.1368 394.93 23.4198C395.216 23.7053 395.674 23.7053 395.957 23.4198V23.4198Z" fill="white"/>
<path fill-rule="evenodd" clip-rule="evenodd" d="M389.024 19.4804H390.598C391.026 19.4804 391.373 19.1517 391.373 18.7524C391.373 18.3506 391.026 18.0274 390.598 18.0274H387.304C386.876 18.0274 386.532 18.3506 386.529 18.7524C386.532 18.7645 386.534 18.7737 386.534 18.7834C386.534 18.7956 386.529 18.8096 386.529 18.8236V22.074C386.529 22.4952 386.855 22.8373 387.257 22.8373C387.657 22.8349 387.982 22.4952 387.982 22.074V20.4908L390.911 23.4198C391.197 23.7053 391.656 23.7053 391.939 23.4198C392.222 23.1368 392.222 22.6778 391.939 22.3954L389.024 19.4804Z" fill="white"/>
</g>
</g>
<g clip-path="url(#clip3_9701_21)">
<rect opacity="0.79705" width="68" height="40" rx="5" fill="#1F2726"/>
<path fill-rule="evenodd" clip-rule="evenodd" d="M25 30V10L45 20L25 30Z" fill="white"/>
</g>
<defs>
<clipPath id="clip0_9701_21">
<rect width="338.471" height="32" fill="white" transform="translate(72.5294 8)"/>
</clipPath>
<clipPath id="clip1_9701_21">
<rect width="23" height="12" fill="white" transform="translate(319.529 18)"/>
</clipPath>
<clipPath id="clip2_9701_21">
<rect width="14" height="14" fill="white" transform="translate(386.529 18)"/>
</clipPath>
<clipPath id="clip3_9701_21">
<rect width="65.76" height="40" fill="white"/>
</clipPath>
</defs>
</svg>
