<svg width="70" height="70" viewBox="0 0 70 70" fill="none" xmlns="http://www.w3.org/2000/svg">
<g clip-path="url(#clip0_9701_181)">
<path d="M57.6339 52.4863C58.8649 51.1059 58.8092 49.0059 57.5068 47.6925L54.0476 44.2334C58.6797 38.1978 58.128 29.6654 52.7573 24.2765L37.817 9.33392L38.118 9.03292C40.1843 6.96662 40.1843 3.61627 38.118 1.54997C36.0517 -0.516331 32.7014 -0.516331 30.6351 1.54997L24.5008 7.68426L17.8835 1.06697C16.4615 -0.35504 14.1559 -0.35504 12.7339 1.06697C11.3119 2.48898 11.3119 4.79459 12.7339 6.21661L19.3512 12.8339L12.8342 19.3509L6.21691 12.7336C4.7949 11.3116 2.48929 11.3116 1.06728 12.7336C-0.354735 14.1556 -0.354735 16.4612 1.06728 17.8832L7.68457 24.5005L1.55027 30.6348C-0.516026 32.7011 -0.516026 36.0514 1.55027 38.1177C3.61657 40.184 6.96693 40.184 9.03323 38.1177L9.33422 37.8167L24.2768 52.7593C29.6612 58.14 38.2013 58.6922 44.2337 54.0496L47.6928 57.5088C49.0014 58.8222 51.1103 58.8782 52.4866 57.636L64.8509 70.0002H70.0005V64.8506L57.6339 52.4863ZM14.3835 4.56695C13.8725 4.05595 13.8725 3.22763 14.3835 2.71663C14.8945 2.20563 15.7229 2.20563 16.2338 2.71663L22.8511 9.33392L21.0008 11.1842L14.3835 4.56695ZM2.71693 16.2335C2.20594 15.7225 2.20594 14.8942 2.71693 14.3832C3.22793 13.8722 4.05626 13.8722 4.56726 14.3832L11.1845 21.0005L9.33422 22.8508L2.71693 16.2335ZM7.68457 36.1671L7.38357 36.4681C6.21006 37.6051 4.33699 37.5757 3.19993 36.4022C2.0881 35.2548 2.0881 33.4319 3.19993 32.2844L9.33422 26.1502L14.4839 21.0005L21.0008 14.4836L26.1505 9.33392L32.2847 3.19963C33.4583 2.06257 35.3313 2.09203 36.4684 3.26554C37.5802 4.41295 37.5802 6.23586 36.4684 7.38327L36.1674 7.68426L7.68457 36.1671ZM44.0762 51.1097C39.061 56.1135 30.9416 56.1135 25.9265 51.1097L10.9839 36.1671L36.1674 10.9836L51.11 25.9262C56.1138 30.9413 56.1138 39.0606 51.11 44.0759L44.0762 51.1097ZM50.9921 55.8591C50.5366 56.3146 49.7981 56.3146 49.3425 55.8591L45.9837 52.5003L52.5006 45.9834L55.8594 49.3422C56.3149 49.7978 56.3149 50.5363 55.8594 50.9918L50.9921 55.8591ZM67.6672 67.6669H65.8169L54.1503 56.0003L56.0006 54.15L67.6672 65.8166V67.6669Z" fill="white"/>
<path d="M43.1463 42.9511L39.6463 24.2845C39.5266 23.6514 38.9163 23.2352 38.2832 23.355C38.0533 23.3984 37.8415 23.5101 37.6758 23.6755L34.2599 27.0915L32.5834 22.9009C32.4375 22.5367 32.1185 22.2701 31.7341 22.1915C31.3499 22.11 30.9508 22.2296 30.6747 22.5089L24.8414 28.3422C24.5114 28.6719 24.4096 29.1665 24.5824 29.5998L29.2491 41.2664C29.4881 41.8648 30.1668 42.1561 30.7653 41.9171C30.9123 41.8584 31.0459 41.7704 31.1577 41.6584L35.0007 37.8166L41.1758 43.9917C41.6321 44.4466 42.3708 44.4456 42.8258 43.9893C43.097 43.7171 43.2169 43.3288 43.1463 42.9511ZM35.8255 35.3421C35.3699 34.8867 34.6315 34.8867 34.1759 35.3421L30.7599 38.7581L27.0371 29.4493L31.0749 25.4103L32.7514 29.601C32.9904 30.1993 33.6691 30.4907 34.2676 30.2517C34.4146 30.1929 34.5482 30.105 34.66 29.993L37.7622 26.8908L40.1608 39.6763L35.8255 35.3421Z" fill="white"/>
</g>
<defs>
<clipPath id="clip0_9701_181">
<rect width="70" height="70" fill="white" transform="translate(0.000305176)"/>
</clipPath>
</defs>
</svg>
