<svg width="70" height="70" viewBox="0 0 70 70" fill="none" xmlns="http://www.w3.org/2000/svg">
<path d="M58.9169 0C56.9839 0 55.4169 1.56698 55.4169 3.5V4.66667H29.7503C26.5303 4.67046 23.9207 7.28 23.9169 10.5V16.3333H21.5836C19.6506 16.3333 18.0836 17.9003 18.0836 19.8333V23.8525C13.0017 26.9849 9.90994 32.5303 9.91694 38.5V39.8813C8.5235 40.374 7.58973 41.6888 7.5836 43.1667V45.5C7.5836 46.1443 8.10598 46.6667 8.75027 46.6667H46.0836C46.7279 46.6667 47.2503 46.1443 47.2503 45.5V43.1667C47.2441 41.6888 46.3104 40.374 44.9169 39.8813V38.5C44.9238 33.8543 43.0761 29.3981 39.7836 26.1205C38.8686 25.2382 37.85 24.47 36.7503 23.8327V19.8333C36.7503 17.9003 35.1833 16.3333 33.2503 16.3333H30.9169V12.8333C30.9169 12.189 31.4393 11.6667 32.0836 11.6667H55.4169V14C55.4169 15.933 56.9839 17.5 58.9169 17.5H62.4169V0H58.9169ZM44.9169 43.1667V44.3333H9.91694V43.1667C9.91694 42.5224 10.4393 42 11.0836 42H43.7503C44.3946 42 44.9169 42.5224 44.9169 43.1667ZM38.1398 27.7737C40.9908 30.6144 42.5903 34.4753 42.5836 38.5V39.6667H12.2503V38.5C12.2465 33.2284 15.0299 28.3477 19.5688 25.6667H35.2733C36.3169 26.2405 37.2807 26.9488 38.1398 27.7737ZM33.2503 18.6667C33.8946 18.6667 34.4169 19.189 34.4169 19.8333V23.3333H20.4169V19.8333C20.4169 19.189 20.9393 18.6667 21.5836 18.6667H33.2503ZM55.4169 9.33333H32.0836C30.1506 9.33333 28.5836 10.9003 28.5836 12.8333V16.3333H26.2503V10.5C26.2503 8.56698 27.8173 7 29.7503 7H55.4169V9.33333ZM60.0836 15.1667H58.9169C58.2726 15.1667 57.7503 14.6443 57.7503 14V3.5C57.7503 2.85571 58.2726 2.33333 58.9169 2.33333H60.0836V15.1667Z" fill="white"/>
<path d="M27.417 49C26.7727 49 26.2503 49.5224 26.2503 50.1667V54.8333C26.2503 55.4776 26.7727 56 27.417 56C28.0613 56 28.5836 55.4776 28.5836 54.8333V50.1667C28.5836 49.5224 28.0613 49 27.417 49Z" fill="white"/>
<path d="M27.417 58.3334C26.7727 58.3334 26.2503 58.8557 26.2503 59.5V64.1667C26.2503 64.811 26.7727 65.3334 27.417 65.3334C28.0613 65.3334 28.5836 64.811 28.5836 64.1667V59.5C28.5836 58.8557 28.0613 58.3334 27.417 58.3334Z" fill="white"/>
<path d="M41.417 53.6666C40.7727 53.6666 40.2503 54.189 40.2503 54.8333V59.5C40.2503 60.1443 40.7727 60.6666 41.417 60.6666C42.0613 60.6666 42.5836 60.1443 42.5836 59.5V54.8333C42.5836 54.189 42.0613 53.6666 41.417 53.6666Z" fill="white"/>
<path d="M32.0837 53.6666C31.4394 53.6666 30.917 54.189 30.917 54.8333V59.5C30.917 60.1443 31.4394 60.6666 32.0837 60.6666C32.728 60.6666 33.2503 60.1443 33.2503 59.5V54.8333C33.2503 54.189 32.728 53.6666 32.0837 53.6666Z" fill="white"/>
<path d="M22.7503 53.6666C22.106 53.6666 21.5836 54.189 21.5836 54.8333V59.5C21.5836 60.1443 22.106 60.6666 22.7503 60.6666C23.3946 60.6666 23.9169 60.1443 23.9169 59.5V54.8333C23.9169 54.189 23.3946 53.6666 22.7503 53.6666Z" fill="white"/>
<path d="M13.417 53.6666C12.7727 53.6666 12.2503 54.189 12.2503 54.8333V59.5C12.2503 60.1443 12.7727 60.6666 13.417 60.6666C14.0613 60.6666 14.5836 60.1443 14.5836 59.5V54.8333C14.5836 54.189 14.0613 53.6666 13.417 53.6666Z" fill="white"/>
<path d="M18.0837 49C17.4394 49 16.917 49.5224 16.917 50.1667V54.8333C16.917 55.4776 17.4394 56 18.0837 56C18.728 56 19.2503 55.4776 19.2503 54.8333V50.1667C19.2503 49.5224 18.728 49 18.0837 49Z" fill="white"/>
<path d="M36.7503 49C36.106 49 35.5836 49.5224 35.5836 50.1667V54.8333C35.5836 55.4776 36.106 56 36.7503 56C37.3946 56 37.9169 55.4776 37.9169 54.8333V50.1667C37.9169 49.5224 37.3946 49 36.7503 49Z" fill="white"/>
<path d="M36.7503 58.3334C36.106 58.3334 35.5836 58.8557 35.5836 59.5V64.1667C35.5836 64.811 36.106 65.3334 36.7503 65.3334C37.3946 65.3334 37.9169 64.811 37.9169 64.1667V59.5C37.9169 58.8557 37.3946 58.3334 36.7503 58.3334Z" fill="white"/>
<path d="M18.0837 58.3334C17.4394 58.3334 16.917 58.8557 16.917 59.5V64.1667C16.917 64.811 17.4394 65.3334 18.0837 65.3334C18.728 65.3334 19.2503 64.811 19.2503 64.1667V59.5C19.2503 58.8557 18.728 58.3334 18.0837 58.3334Z" fill="white"/>
<path d="M22.7503 63C22.106 63 21.5836 63.5224 21.5836 64.1667V68.8333C21.5836 69.4776 22.106 70 22.7503 70C23.3946 70 23.9169 69.4776 23.9169 68.8333V64.1667C23.9169 63.5224 23.3946 63 22.7503 63Z" fill="white"/>
<path d="M32.0837 63C31.4394 63 30.917 63.5224 30.917 64.1667V68.8333C30.917 69.4776 31.4394 70 32.0837 70C32.728 70 33.2503 69.4776 33.2503 68.8333V64.1667C33.2503 63.5224 32.728 63 32.0837 63Z" fill="white"/>
</svg>
