<svg width="70" height="70" viewBox="0 0 70 70" fill="none" xmlns="http://www.w3.org/2000/svg">
<path d="M30.6255 70C21.7793 70 14.5839 62.8017 14.5839 53.9583C14.5839 49.1925 16.7509 44.6221 20.4172 41.5858V10.2083C20.4172 4.57917 24.9964 0 30.6255 0C36.2547 0 40.8339 4.57917 40.8339 10.2083V41.5858C44.5001 44.6221 46.6672 49.1925 46.6672 53.9583C46.6672 62.8017 39.4718 70 30.6255 70ZM30.6255 2.91667C26.6064 2.91667 23.3339 6.18917 23.3339 10.2083V42.2917C23.3339 42.7496 23.118 43.1813 22.7534 43.4554C19.4634 45.9317 17.5005 49.8575 17.5005 53.9583C17.5005 61.1946 23.3893 67.0833 30.6255 67.0833C37.8618 67.0833 43.7505 61.1946 43.7505 53.9583C43.7505 49.8575 41.7876 45.9317 38.4976 43.4554C38.133 43.1813 37.9172 42.7496 37.9172 42.2917V10.2083C37.9172 6.18917 34.6447 2.91667 30.6255 2.91667Z" fill="white"/>
<path d="M30.6255 61.2499C26.6064 61.2499 23.3339 57.9804 23.3339 53.9583C23.3339 49.9362 26.6064 46.6666 30.6255 46.6666C34.6447 46.6666 37.9172 49.9362 37.9172 53.9583C37.9172 57.9804 34.6447 61.2499 30.6255 61.2499ZM30.6255 49.5833C28.2134 49.5833 26.2505 51.5462 26.2505 53.9583C26.2505 56.3704 28.2134 58.3333 30.6255 58.3333C33.0376 58.3333 35.0005 56.3704 35.0005 53.9583C35.0005 51.5462 33.0376 49.5833 30.6255 49.5833Z" fill="white"/>
<path d="M30.6251 49.5834C29.8201 49.5834 29.1667 48.93 29.1667 48.125V16.0417C29.1667 15.2367 29.8201 14.5834 30.6251 14.5834C31.4301 14.5834 32.0834 15.2367 32.0834 16.0417V48.125C32.0834 48.93 31.4301 49.5834 30.6251 49.5834Z" fill="white"/>
<path d="M53.9584 11.6667H48.1251C47.3201 11.6667 46.6668 11.0133 46.6668 10.2083C46.6668 9.40333 47.3201 8.75 48.1251 8.75H53.9584C54.7634 8.75 55.4168 9.40333 55.4168 10.2083C55.4168 11.0133 54.7634 11.6667 53.9584 11.6667Z" fill="white"/>
<path d="M53.9584 23.3333H48.1251C47.3201 23.3333 46.6668 22.68 46.6668 21.875C46.6668 21.07 47.3201 20.4166 48.1251 20.4166H53.9584C54.7634 20.4166 55.4168 21.07 55.4168 21.875C55.4168 22.68 54.7634 23.3333 53.9584 23.3333Z" fill="white"/>
<path d="M53.9584 35H48.1251C47.3201 35 46.6668 34.3467 46.6668 33.5417C46.6668 32.7367 47.3201 32.0834 48.1251 32.0834H53.9584C54.7634 32.0834 55.4168 32.7367 55.4168 33.5417C55.4168 34.3467 54.7634 35 53.9584 35Z" fill="white"/>
</svg>
