<svg width="70" height="70" viewBox="0 0 70 70" fill="none" xmlns="http://www.w3.org/2000/svg">
<g clip-path="url(#clip0_9701_120)">
<path d="M50.167 32.6666H49.0003V30.3333H50.167C52.1 30.3333 53.667 28.7663 53.667 26.8333V6.78528C55.486 6.14463 56.4412 4.15065 55.8004 2.33167C55.3074 0.932258 53.984 -0.00282549 52.5003 -5.46594e-05H17.5003C15.5718 -0.00370049 14.0056 1.55672 14.0019 3.48521C13.999 4.96892 14.9342 6.29236 16.3336 6.78528V26.8333C16.3336 28.7663 17.9006 30.3333 19.8336 30.3333H21.0003V32.6666H19.8336C16.6136 32.6704 14.0041 35.2799 14.0003 38.4999C14.0003 39.1442 14.5227 39.6666 15.167 39.6666C15.1441 47.4627 19.717 54.5401 26.8336 57.7231V68.8333C26.8336 69.4775 27.356 69.9999 28.0003 69.9999H42.0003C42.6446 69.9999 43.167 69.4775 43.167 68.8333V57.7231C50.2826 54.539 54.8551 47.4623 54.8336 39.6666C55.4779 39.6666 56.0003 39.1442 56.0003 38.4999C55.9965 35.2799 53.387 32.6704 50.167 32.6666ZM16.3336 3.49994C16.3336 2.85565 16.856 2.33328 17.5003 2.33328H52.5003C53.1446 2.33328 53.667 2.85565 53.667 3.49994C53.667 4.14424 53.1446 4.66661 52.5003 4.66661H17.5003C16.856 4.66661 16.3336 4.14424 16.3336 3.49994ZM19.8336 27.9999C19.1893 27.9999 18.667 27.4776 18.667 26.8333V6.99994H51.3336V26.8333C51.3336 27.4776 50.8113 27.9999 50.167 27.9999H19.8336ZM46.667 30.3333V32.6666H23.3336V30.3333H46.667ZM29.167 67.6666V58.6273L29.2755 58.6564C29.3921 58.6914 29.5088 58.7183 29.6255 58.7509C30.0525 58.8723 30.4837 58.9789 30.9193 59.0706C31.1281 59.1149 31.3381 59.1511 31.5481 59.1873C31.9086 59.2503 32.2715 59.3039 32.6366 59.3448C32.8583 59.3716 33.0776 59.3996 33.3016 59.4183C33.7769 59.4579 34.2532 59.4805 34.7308 59.4859C34.8195 59.4859 34.9058 59.4988 34.9945 59.4988C35.0831 59.4988 35.1706 59.4871 35.2593 59.4859C35.7369 59.4805 36.2129 59.4579 36.6873 59.4183C36.9113 59.3996 37.133 59.3704 37.3558 59.3448C37.7175 59.3016 38.0768 59.2503 38.435 59.1884C38.6485 59.1511 38.862 59.1126 39.0743 59.0718C39.499 58.9843 39.9178 58.8781 40.3331 58.7614C40.4626 58.7253 40.5945 58.6961 40.724 58.6576C40.7578 58.6471 40.794 58.6401 40.8278 58.6296L40.8336 67.6666H29.167ZM41.557 55.8891C38.4167 57.1554 34.9774 57.4868 31.6531 56.8434C30.5518 56.6315 29.4744 56.3107 28.4366 55.8856C21.8119 53.2313 17.4776 46.8032 17.5003 39.6666H52.5003C52.5225 46.806 48.1851 53.2358 41.557 55.8891ZM16.5331 37.3333C17.0294 35.9359 18.3508 35.0017 19.8336 34.9999H50.167C51.6498 35.0017 52.9712 35.9359 53.4675 37.3333H16.5331Z" fill="white"/>
<path d="M30.3337 10.5H26.619C25.9748 8.67751 23.9749 7.72245 22.1526 8.36688C20.3303 9.01132 19.3751 11.0108 20.0194 12.8333C20.6637 14.6558 22.6635 15.6109 24.4858 14.9664C25.4826 14.6141 26.2666 13.83 26.6189 12.8333H30.3337C30.978 12.8333 31.5004 12.3109 31.5004 11.6667C31.5004 11.0224 30.978 10.5 30.3337 10.5ZM23.3337 12.8333C22.6894 12.8333 22.167 12.3109 22.167 11.6667C22.167 11.0224 22.6894 10.5 23.3337 10.5C23.978 10.5 24.5004 11.0224 24.5004 11.6667C24.5004 12.3109 23.978 12.8333 23.3337 12.8333Z" fill="white"/>
</g>
<defs>
<clipPath id="clip0_9701_120">
<rect width="70" height="70" fill="white" transform="translate(0.000305176)"/>
</clipPath>
</defs>
</svg>
