<svg width="70" height="70" viewBox="0 0 70 70" fill="none" xmlns="http://www.w3.org/2000/svg">
<g clip-path="url(#clip0_9701_166)">
<path d="M70.0004 19.833C69.9953 15.3248 66.3419 11.6715 61.8337 11.6664H26.8337C26.1174 11.6638 25.4043 11.7616 24.7151 11.9569C24.2787 12.0619 12.7544 16.4065 5.92357 18.986H5.91424C4.58288 19.3576 3.37134 20.0697 2.39907 21.0522C0.854629 22.5782 -0.0099989 24.6619 0.000404723 26.833C0.00234137 29.7033 1.51216 32.3614 3.9764 33.833C1.51319 35.3057 0.00373594 37.9632 0.000404723 40.833C0.00496322 43.7041 1.51679 46.3618 3.98224 47.833C0.827108 49.7135 -0.682414 53.4705 0.294548 57.0112C1.27151 60.5519 4.49406 63.0033 8.16707 62.9997H43.1671C44.3741 62.9987 45.5656 62.7276 46.6542 62.2064C46.6628 62.2069 46.6714 62.2069 46.6799 62.2064L65.4504 55.1562C68.1311 53.8356 69.8738 51.1535 69.9913 48.1676C70.1089 45.1816 68.5825 42.3708 66.0139 40.8435C66.5961 40.5061 67.1295 40.0908 67.5994 39.6092C69.1436 38.0848 70.0089 36.0029 70.0004 33.833C69.9902 30.9662 68.4811 28.3137 66.0221 26.84C66.6017 26.5028 67.1331 26.0888 67.6017 25.6092C69.145 24.0844 70.0096 22.0025 70.0004 19.833ZM25.3579 14.1992C25.8383 14.0649 26.3349 13.9978 26.8337 13.9997H61.8337C65.0538 14.0036 67.6632 16.613 67.6671 19.833C67.6742 21.3813 67.0573 22.8671 65.9556 23.9549C65.5592 24.3674 65.0952 24.7091 64.5836 24.9652C64.5206 24.999 64.4669 25.0305 64.4074 25.0609C62.8336 25.6442 60.0627 26.6849 55.7682 28.2972L50.5836 30.2444C51.7491 27.7166 51.5459 24.7692 50.0445 22.4253C48.5431 20.0814 45.9506 18.6645 43.1671 18.6664H13.3844C19.1932 16.4789 24.8831 14.3497 25.3579 14.1992ZM2.33374 26.833C2.32709 25.282 2.94623 23.7939 4.05107 22.7054C4.75626 21.9894 5.64061 21.4757 6.6119 21.2179C6.64107 21.2085 6.6749 21.198 6.70874 21.1852C7.18477 21.0605 7.67498 20.9981 8.16707 20.9997H43.1671C46.3871 21.0036 48.9966 23.613 49.0004 26.833C48.9919 29.0157 47.7739 31.0137 45.8376 32.0212C45.8034 32.0343 45.7699 32.0491 45.7372 32.0655C44.9395 32.4646 44.0591 32.6704 43.1671 32.6664H8.16707C4.94701 32.6625 2.3376 30.0531 2.33374 26.833ZM2.33374 40.833C2.33952 37.6138 4.94781 35.0055 8.16707 34.9997H43.1671C46.3871 35.0036 48.9966 37.613 49.0004 40.833C48.9919 43.0157 47.7739 45.0137 45.8376 46.0212C45.8034 46.0343 45.7699 46.0491 45.7372 46.0655C44.9395 46.4646 44.0591 46.6704 43.1671 46.6664H8.16707C4.94701 46.6625 2.3376 44.0531 2.33374 40.833ZM8.16707 60.6664C4.94541 60.6664 2.33374 58.0547 2.33374 54.833C2.33374 51.6114 4.94541 48.9997 8.16707 48.9997H43.1671C46.3887 48.9997 49.0004 51.6114 49.0004 54.833C49.0004 58.0547 46.3887 60.6664 43.1671 60.6664H8.16707ZM67.6671 47.833C67.6741 49.381 67.0577 50.8666 65.9567 51.9549C65.5373 52.3796 65.0553 52.7376 64.5276 53.0165L50.5754 58.249C52.314 54.5128 50.9795 50.0667 47.4709 47.9054L62.8709 42.128C65.6377 42.6217 67.6561 45.0226 67.6671 47.833ZM67.6671 33.833C67.6742 35.3813 67.0573 36.8671 65.9556 37.9549C65.5592 38.3674 65.0952 38.7091 64.5836 38.9652C64.5194 39.0002 64.4587 39.0317 64.4051 39.062L50.5824 44.2455C52.3103 40.508 50.9745 36.0687 47.4709 33.9054L56.5837 30.4824C59.2461 29.4825 61.3146 28.7055 62.8837 28.1187C65.6456 28.6241 67.6557 31.0253 67.6671 33.833Z" fill="white"/>
<path d="M45.5007 26.833C45.5007 26.1887 44.9783 25.6663 44.334 25.6663H7.00065C6.35632 25.6663 5.83398 26.1887 5.83398 26.833C5.83398 27.4773 6.35632 27.9997 7.00065 27.9997H44.334C44.9783 27.9997 45.5007 27.4773 45.5007 26.833Z" fill="white"/>
<path d="M45.5007 40.8331C45.5007 40.1888 44.9783 39.6664 44.334 39.6664H7.00065C6.35632 39.6664 5.83398 40.1888 5.83398 40.8331C5.83398 41.4774 6.35632 41.9997 7.00065 41.9997H44.334C44.9783 41.9997 45.5007 41.4774 45.5007 40.8331Z" fill="white"/>
<path d="M44.334 53.6665H7.00065C6.35632 53.6665 5.83398 54.1888 5.83398 54.8332C5.83398 55.4775 6.35632 55.9998 7.00065 55.9998H44.334C44.9783 55.9998 45.5007 55.4775 45.5007 54.8332C45.5007 54.1888 44.9783 53.6665 44.334 53.6665Z" fill="white"/>
<path d="M11.6671 2.33319C11.0228 2.33319 10.5004 2.85553 10.5004 3.49986V5.83319C10.5004 6.47752 11.0228 6.99986 11.6671 6.99986C12.3114 6.99986 12.8338 6.47752 12.8338 5.83319V3.49986C12.8338 2.85553 12.3114 2.33319 11.6671 2.33319Z" fill="white"/>
<path d="M10.5004 12.8334C10.5004 13.4777 11.0228 14.0001 11.6671 14.0001C12.3114 14.0001 12.8338 13.4777 12.8338 12.8334V10.5C12.8338 9.85571 12.3114 9.33337 11.6671 9.33337C11.0228 9.33337 10.5004 9.85571 10.5004 10.5V12.8334Z" fill="white"/>
<path d="M9.33398 6.99982H7.00065C6.35632 6.99982 5.83398 7.52215 5.83398 8.16649C5.83398 8.81082 6.35632 9.33316 7.00065 9.33316H9.33398C9.97831 9.33316 10.5006 8.81082 10.5006 8.16649C10.5006 7.52215 9.97831 6.99982 9.33398 6.99982Z" fill="white"/>
<path d="M14.0005 9.33316H16.3339C16.9782 9.33316 17.5005 8.81082 17.5005 8.16649C17.5005 7.52215 16.9782 6.99982 16.3339 6.99982H14.0005C13.3562 6.99982 12.8339 7.52215 12.8339 8.16649C12.8339 8.81082 13.3562 9.33316 14.0005 9.33316Z" fill="white"/>
<path d="M67.9084 63.9253C67.4507 63.4831 66.723 63.4895 66.273 63.9395C65.823 64.3895 65.8166 65.1172 66.2588 65.5749L68.0088 67.325C68.4665 67.7671 69.1942 67.7608 69.6442 67.3107C70.0943 66.8607 70.1006 66.1331 69.6584 65.6753L67.9084 63.9253Z" fill="white"/>
<path d="M62.759 62.0748C63.2168 62.5169 63.9444 62.5106 64.3945 62.0606C64.8445 61.6105 64.8508 60.8829 64.4087 60.4251L62.6587 58.6751C62.2009 58.233 61.4732 58.2393 61.0232 58.6893C60.5732 59.1393 60.5669 59.867 61.009 60.3248L62.759 62.0748Z" fill="white"/>
<path d="M61.0088 67.3249C61.4644 67.7804 62.2029 67.7804 62.6585 67.3249L64.4084 65.5749C64.8506 65.1172 64.8443 64.3895 64.3942 63.9395C63.9442 63.4895 63.2166 63.4831 62.7588 63.9253L61.0088 65.6753C60.5533 66.1309 60.5533 66.8694 61.0088 67.3249Z" fill="white"/>
<path d="M68.0087 58.6751L66.2587 60.4251C65.9554 60.718 65.8337 61.1518 65.9405 61.5597C66.0473 61.9676 66.3658 62.2861 66.7737 62.3929C67.1816 62.4997 67.6154 62.378 67.9083 62.0748L69.6583 60.3248C70.1004 59.867 70.0941 59.1393 69.6441 58.6893C69.1941 58.2393 68.4664 58.233 68.0087 58.6751Z" fill="white"/>
</g>
<defs>
<clipPath id="clip0_9701_166">
<rect width="70" height="70" fill="white" transform="translate(0.000305176)"/>
</clipPath>
</defs>
</svg>
