<svg width="71" height="70" viewBox="0 0 71 70" fill="none" xmlns="http://www.w3.org/2000/svg">
<g clip-path="url(#clip0_9701_253)">
<path d="M48.5599 40.9809C44.9313 37.4861 40.14 35.5613 35.0689 35.5613C29.9966 35.5613 25.2048 37.4866 21.5762 40.9825C20.9068 41.6273 20.2797 42.324 19.7119 43.0528C18.3828 44.7608 18.5417 47.2116 20.0806 48.7586C20.0833 48.7613 20.086 48.7639 20.0887 48.7666C20.9058 49.5837 21.9909 50.0337 23.1436 50.0337C24.4974 50.0337 25.757 49.4194 26.5993 48.3476C26.8631 48.0116 27.1515 47.6868 27.456 47.3828C29.4845 45.3543 32.1879 44.237 35.0689 44.237C37.9493 44.237 40.6532 45.3543 42.6818 47.3823C42.9852 47.6862 43.2736 48.011 43.5385 48.3476C44.3807 49.4189 45.6398 50.0337 46.9936 50.0337H46.9942C48.1468 50.0337 49.232 49.5837 50.0485 48.7666C50.0517 48.7639 50.0544 48.7613 50.0571 48.7586C51.596 47.2116 51.755 44.7608 50.4252 43.0528C49.8575 42.3234 49.2298 41.6267 48.5599 40.9809ZM48.5962 47.3133C48.5941 47.3154 48.592 47.3175 48.5904 47.3197C48.1617 47.7451 47.5951 47.9795 46.9936 47.9795C46.2744 47.9795 45.604 47.6509 45.1534 47.0778C44.8382 46.677 44.4952 46.2907 44.134 45.93C41.718 43.513 38.4983 42.1827 35.0689 42.1827C31.6388 42.1827 28.4197 43.5135 26.0031 45.93C25.6409 46.2923 25.2984 46.6781 24.9838 47.0784C24.5338 47.6509 23.8633 47.9795 23.1436 47.9795C22.5421 47.9795 21.976 47.7451 21.5473 47.3197C21.5452 47.3181 21.5431 47.3159 21.5415 47.3138C20.7265 46.4988 20.6371 45.2098 21.3333 44.3151C21.8411 43.6633 22.4024 43.0399 23.0018 42.462C26.2455 39.337 30.5312 37.6161 35.0689 37.6161C39.606 37.6161 43.8911 39.3365 47.1343 42.461C47.7342 43.0389 48.2961 43.6628 48.8039 44.3151C49.5006 45.2098 49.4112 46.4988 48.5962 47.3133Z" fill="white"/>
<path d="M35.0688 48.8067C33.4159 48.8067 31.8614 49.4504 30.6927 50.6191C29.5241 51.7878 28.8803 53.3417 28.8803 54.9946C28.8803 56.6476 29.5241 58.202 30.6927 59.3707C31.8614 60.5394 33.4159 61.1831 35.0688 61.1831C36.7217 61.1831 38.2757 60.5394 39.4443 59.3707C41.8571 56.9579 41.8571 53.0319 39.4443 50.6191C38.2757 49.4504 36.7217 48.8067 35.0688 48.8067ZM37.9915 57.9179C37.2108 58.6986 36.1727 59.1288 35.0688 59.1288C33.9644 59.1288 32.9263 58.6986 32.1455 57.9179C31.3648 57.1372 30.9346 56.0991 30.9346 54.9952C30.9346 53.8907 31.3648 52.8526 32.1455 52.0719C32.9263 51.2912 33.9644 50.861 35.0688 50.861C36.1727 50.861 37.2108 51.2912 37.9915 52.0719C39.6033 53.6836 39.6033 56.3062 37.9915 57.9179Z" fill="white"/>
<path d="M69.0028 23.9672C68.5432 23.4647 68.0637 22.9633 67.5779 22.4775C60.8918 15.794 52.4789 11.3794 43.2484 9.71152C34.226 8.0816 25.0302 9.1593 16.6554 12.8296C16.1358 13.0575 15.8987 13.6633 16.1267 14.1828C16.3546 14.7024 16.9604 14.9395 17.4799 14.7115C34.1307 7.41486 53.2253 11.0338 66.1251 23.9308C66.5895 24.3953 67.0481 24.8742 67.4874 25.3542C68.3099 26.2526 68.2735 27.6364 67.405 28.5049C66.9571 28.9522 66.361 29.193 65.7296 29.177C65.1052 29.163 64.5299 28.9035 64.1109 28.4449C63.7166 28.0142 63.3067 27.5856 62.8925 27.1714C55.4776 19.7565 45.5969 15.6736 35.0688 15.6736C35.0682 15.6736 35.0666 15.6736 35.0661 15.6736C24.5369 15.6742 14.6551 19.7591 7.24129 27.1751C6.82712 27.5898 6.4183 28.0169 6.02661 28.4449C5.60709 28.9035 5.03239 29.1636 4.40792 29.177C3.77222 29.1919 3.1804 28.9522 2.73251 28.5049C1.86404 27.6364 1.82766 26.2526 2.64957 25.3547C3.08782 24.8758 3.54534 24.398 4.00874 23.9346C7.01334 20.9294 10.4059 18.3861 14.0906 16.3752C14.5888 16.1033 14.7723 15.4794 14.5005 14.9812C14.2287 14.4836 13.6047 14.2995 13.1066 14.5719C9.249 16.6764 5.69912 19.338 2.5554 22.4818C2.07113 22.9666 1.59275 23.4663 1.13416 23.9672C-0.432083 25.6785 -0.368406 28.3096 1.27971 29.9577C2.1043 30.7817 3.19217 31.2323 4.35388 31.2323C4.38652 31.2323 4.42023 31.2318 4.45341 31.2312C5.64401 31.205 6.74097 30.7079 7.54255 29.8319C7.91391 29.4258 8.30133 29.0207 8.69409 28.6279C15.72 21.5999 25.0859 17.729 35.0661 17.7284H35.0688C45.0474 17.7284 54.4133 21.5978 61.4397 28.6242C61.8325 29.017 62.2215 29.4236 62.595 29.8319C63.3966 30.7079 64.4935 31.205 65.6841 31.2312C66.8699 31.2569 68.022 30.793 68.8578 29.9577C70.5054 28.3096 70.5696 25.6785 69.0028 23.9672Z" fill="white"/>
<path d="M57.6288 31.3009C52.0621 25.9948 44.7526 22.82 37.046 22.3609C36.4788 22.3277 35.993 22.759 35.9592 23.3252C35.9255 23.8919 36.3574 24.3783 36.924 24.412C44.1463 24.8422 50.9956 27.8163 56.2113 32.7879C56.8716 33.4178 57.51 34.0818 58.1082 34.7619C58.9061 35.6689 58.8638 37.0463 58.0119 37.8982C57.5608 38.3487 56.9631 38.5858 56.3247 38.5654C55.6826 38.5446 55.094 38.2669 54.668 37.782C54.1993 37.2491 53.7017 36.7279 53.1896 36.2324C48.3196 31.5262 41.8844 28.9347 35.0694 28.9341H35.0688C28.2543 28.9341 21.8192 31.5256 16.9492 36.2313C16.4355 36.7274 15.9378 37.2491 15.4691 37.782C15.0432 38.2669 14.4551 38.5446 13.8124 38.5654C13.1756 38.5868 12.5763 38.3487 12.1252 37.8976C11.2744 37.0468 11.2263 35.6753 12.0161 34.7764C12.4158 34.321 12.8348 33.8715 13.2618 33.4402C18.5657 28.0753 25.6521 24.8695 33.2152 24.4136C33.7814 24.3793 34.2127 23.8924 34.179 23.3262C34.1447 22.7601 33.6583 22.3272 33.0916 22.3625C25.0223 22.8489 17.4613 26.2704 11.801 31.9954C11.3461 32.4556 10.8993 32.9351 10.4723 33.4204C8.96973 35.1312 9.05803 37.736 10.6724 39.3504C11.4954 40.1729 12.5774 40.6208 13.7343 40.6208C13.7824 40.6208 13.8306 40.6202 13.8788 40.6186C15.0769 40.5801 16.2193 40.0407 17.0123 39.1385C17.4442 38.6468 17.9033 38.1657 18.3768 37.7087C27.5817 28.8148 42.5581 28.8153 51.7619 37.7098C52.2344 38.1663 52.693 38.6468 53.1253 39.1385C53.9184 40.0407 55.0608 40.5801 56.2589 40.6186C57.4709 40.6577 58.608 40.2071 59.4647 39.3504C61.0807 37.7344 61.1621 35.1226 59.6509 33.4044C59.0131 32.6798 58.333 31.9719 57.6288 31.3009Z" fill="white"/>
</g>
<defs>
<clipPath id="clip0_9701_253">
<rect width="70.1368" height="70" fill="white" transform="translate(0.000305176)"/>
</clipPath>
</defs>
</svg>
